<svg width="342" height="342" viewBox="0 0 342 342" fill="none" xmlns="http://www.w3.org/2000/svg">
<path d="M148.668 14.0913C157.976 -3.97573 183.808 -3.97573 193.116 14.0913L207.124 41.2802C212.717 52.1364 225.335 57.3629 236.966 53.6413L266.096 44.3208C285.454 38.1273 303.719 56.3931 297.526 75.7502L288.205 104.881C284.484 116.512 289.71 129.13 300.566 134.723L327.755 148.731C345.822 158.039 345.822 183.871 327.755 193.179L300.566 207.186C289.71 212.779 284.484 225.397 288.205 237.029L297.526 266.159C303.719 285.516 285.454 303.782 266.096 297.589L236.966 288.268C225.335 284.546 212.717 289.773 207.124 300.629L193.116 327.818C183.808 345.885 157.976 345.885 148.668 327.818L134.66 300.629C129.067 289.773 116.449 284.546 104.818 288.268L75.6874 297.589C56.3303 303.782 38.0646 285.516 44.2581 266.159L53.5786 237.029C57.3002 225.397 52.0737 212.779 41.2174 207.186L14.0285 193.179C-4.03848 183.871 -4.03848 158.039 14.0285 148.731L41.2174 134.723C52.0737 129.13 57.3002 116.512 53.5786 104.881L44.2581 75.7502C38.0646 56.3931 56.3303 38.1273 75.6874 44.3208L104.818 53.6413C116.449 57.3629 129.067 52.1364 134.66 41.2802L148.668 14.0913Z" fill="#485F4F"/>
</svg>
