<svg xmlns="http://www.w3.org/2000/svg" viewBox="0 0 220 72"><title>Wedding Assets</title><g id="Layer_3" data-name="Layer 3"><path d="M31.85,64.19a21.81,21.81,0,0,1-11.69,5.86,19.89,19.89,0,0,1-6.84,0A13.19,13.19,0,0,1,6.84,67,9.1,9.1,0,0,1,3.78,60,12.79,12.79,0,0,1,6,52.93a21.36,21.36,0,0,1,5-5,39.23,39.23,0,0,1,5.77-3.61C24.89,40.21,34,39,42.81,39.44s17.3,2.48,25.62,4.89c-8.64-.78-17.21-1.91-25.68-1.77a66,66,0,0,0-12.51,1.31,44.6,44.6,0,0,0-11.69,4c-3.62,1.84-7.22,4.21-9.43,7.23a9.21,9.21,0,0,0-1.85,5A6.28,6.28,0,0,0,9,64.74a10.89,10.89,0,0,0,4.91,2.76,18,18,0,0,0,6,.61A23.75,23.75,0,0,0,31.85,64.19Z"/><path d="M188.15,7.81A21.81,21.81,0,0,1,199.84,2a19.89,19.89,0,0,1,6.84,0A13.19,13.19,0,0,1,213.16,5a9.5,9.5,0,0,1,2.28,3.12,9.46,9.46,0,0,1,.78,3.82,12.79,12.79,0,0,1-2.23,7.1,21.36,21.36,0,0,1-5,5,39.23,39.23,0,0,1-5.77,3.61c-8.15,4.08-17.29,5.34-26.07,4.85s-17.3-2.48-25.62-4.89c8.64.78,17.21,1.91,25.68,1.77a66,66,0,0,0,12.51-1.31,44.6,44.6,0,0,0,11.69-4c3.62-1.84,7.22-4.21,9.43-7.23a9.21,9.21,0,0,0,1.85-5A6.28,6.28,0,0,0,211,7.26a10.89,10.89,0,0,0-4.91-2.76,18,18,0,0,0-6-.61A23.75,23.75,0,0,0,188.15,7.81Z"/><path d="M7.4,41.63a42.23,42.23,0,0,1,10-7.66,52.22,52.22,0,0,1,11.86-4.65A70.34,70.34,0,0,1,54.7,27.8,154.3,154.3,0,0,1,79.56,33c8.1,2.29,16.1,4.72,24.16,7.08l24.06,7.31a229.8,229.8,0,0,0,24.09,6.46c8.1,1.53,16.41,2.21,24.58,1a46.3,46.3,0,0,0,22.72-9.41c-6,6-14,9.66-22.38,11.35A63.88,63.88,0,0,1,164.06,58a85.83,85.83,0,0,1-12.72-1.06c-8.42-1.28-16.58-3.62-24.64-5.91l-24.13-7.11-24-7.28a169.38,169.38,0,0,0-24.21-5.7,72.26,72.26,0,0,0-24.59.33A52.86,52.86,0,0,0,17.93,35,45.47,45.47,0,0,0,7.4,41.63Z"/><path d="M17.78,28.13a42,42,0,0,1,10-7.66,52.22,52.22,0,0,1,11.86-4.65A70.34,70.34,0,0,1,65.08,14.3a154.3,154.3,0,0,1,24.86,5.16c8.1,2.29,16.1,4.72,24.16,7.08l24.06,7.31a229.8,229.8,0,0,0,24.09,6.46c8.11,1.53,16.41,2.2,24.58,1a46.26,46.26,0,0,0,22.72-9.41c-6,5.95-14.05,9.66-22.38,11.34a63.13,63.13,0,0,1-12.72,1.24,87.21,87.21,0,0,1-12.73-1.06c-8.42-1.28-16.58-3.62-24.64-5.92L113,30.37l-24-7.28a169.25,169.25,0,0,0-24.2-5.7,72.32,72.32,0,0,0-24.6.33,53.35,53.35,0,0,0-11.79,3.73A45.84,45.84,0,0,0,17.78,28.13Z"/></g></svg>