<svg xmlns="http://www.w3.org/2000/svg" viewBox="0 0 120.54 281.92"><g id="Layer_3" data-name="Layer 3"><path d="M21.17,166.4a36.89,36.89,0,0,1,10-3.05,49.09,49.09,0,0,1,10.5-.61,36.07,36.07,0,0,1,10.44,2,21.27,21.27,0,0,1,8.91,5.72,47.38,47.38,0,0,0-9.72-2.69,78.69,78.69,0,0,0-9.84-1c-3.32-.16-6.66-.22-10-.24S24.69,166.46,21.17,166.4Z"/><path d="M104.94,177.86a83.24,83.24,0,0,0-5.47-8.39,96.12,96.12,0,0,0-6.29-7.77,156.93,156.93,0,0,0-14.34-13.91C68.81,139,58,131,48.15,121.82A125.16,125.16,0,0,1,34.28,107,85.33,85.33,0,0,1,23.62,89.49a59.71,59.71,0,0,1-5.15-20A46.58,46.58,0,0,1,21.55,49,40.92,40.92,0,0,1,33.66,32c.71-.53,1.39-1.11,2.12-1.6L38,29a41.41,41.41,0,0,1,4.8-2.3,38,38,0,0,1,10.24-2.39,52.82,52.82,0,0,1,20.55,2.32A42.42,42.42,0,0,1,91.39,37.12a32,32,0,0,1,9,18.56,25.26,25.26,0,0,1-1,10.43,24.35,24.35,0,0,1-5.24,9,23.72,23.72,0,0,1-4,3.4,21.38,21.38,0,0,1-4.64,2.37,19.3,19.3,0,0,1-5.09,1.05,18.88,18.88,0,0,1-5.15-.47,20.76,20.76,0,0,1-4.79-1.85,20.36,20.36,0,0,1-4.12-3,18.6,18.6,0,0,1-3.06-4,15.9,15.9,0,0,1-1.59-4.76,15.69,15.69,0,0,0,1.85,4.61,18.1,18.1,0,0,0,3.21,3.76,18.62,18.62,0,0,0,8.72,4.27,16.37,16.37,0,0,0,9.49-1,20.37,20.37,0,0,0,7.67-5.67,22.71,22.71,0,0,0,4.51-8.37A22.94,22.94,0,0,0,97.85,56a29.45,29.45,0,0,0-8.66-16.68,40.32,40.32,0,0,0-16.61-9.4A49.27,49.27,0,0,0,53.45,28a32,32,0,0,0-17.32,7,36.92,36.92,0,0,0-10.86,15.4,46.09,46.09,0,0,0-2.51,9.24,45.17,45.17,0,0,0-.39,9.58A56.7,56.7,0,0,0,27.09,88a82.11,82.11,0,0,0,10,16.87A135.29,135.29,0,0,0,50.3,119.56c9.53,9.24,20.06,17.57,29.86,26.78A155.8,155.8,0,0,1,94,161,86.22,86.22,0,0,1,104.94,177.86Z"/><path d="M59.89,229a18.41,18.41,0,0,1-4.65,3.87A19.52,19.52,0,0,1,49.57,235a23.67,23.67,0,0,1-3,.46,24,24,0,0,1-3.06,0,21,21,0,0,1-6-1.2,19.76,19.76,0,0,1-5.41-2.9,23,23,0,0,1-4.31-4.4,25.45,25.45,0,0,1-4.49-11.39,25.05,25.05,0,0,1-.13-6.18,24.68,24.68,0,0,1,1.31-6A28.71,28.71,0,0,1,31,192.93a34.13,34.13,0,0,1,22.22-10,44.2,44.2,0,0,1,23.86,5.68,62,62,0,0,1,18.49,16.19,92.83,92.83,0,0,1,18.52,45,91.94,91.94,0,0,1,.73,12.33,31.52,31.52,0,0,1-.71,6.35,17.41,17.41,0,0,1-2.59,6.13,13.83,13.83,0,0,1-5.19,4.48,10.14,10.14,0,0,1-7.06.79,10.48,10.48,0,0,1-5.79-4.1,15.21,15.21,0,0,1-2.6-6.27,16.72,16.72,0,0,1-.23-3.39,17.83,17.83,0,0,1,.46-3.32,29.6,29.6,0,0,1,2.18-6.05c1.8-3.82,4.08-7.16,5.67-10.74a64.44,64.44,0,0,0,4.12-11c.24-.95.44-1.92.66-2.88s.47-1.91.59-2.89c.28-2,.64-3.89.74-5.86a68.52,68.52,0,0,0-2-23.43,64.56,64.56,0,0,0-9.8-21.3c-4.5-6.43-10.32-11.91-16.54-16.89s-12.94-9.45-19.57-14.13A183.92,183.92,0,0,1,38,132.44a129.84,129.84,0,0,1-16.5-18.24,110.38,110.38,0,0,1-6.8-10.3A95.15,95.15,0,0,1,9.3,92.79a77,77,0,0,1-5.85-24c-.13-1-.11-2.07-.16-3.11s-.08-2.07-.06-3.1c.1-2.07.08-4.15.34-6.21l.32-3.09.52-3.07.26-1.53L5,47.14l.72-3a66.5,66.5,0,0,1,4.41-11.64,60.57,60.57,0,0,1,3-5.47c.54-.89,1.17-1.72,1.76-2.58a25.16,25.16,0,0,1,1.86-2.52l2-2.41c.67-.79,1.45-1.5,2.17-2.25a52.78,52.78,0,0,1,4.67-4.18A53.84,53.84,0,0,1,36.35,6.61a57.17,57.17,0,0,1,24.3-4.77,56.2,56.2,0,0,1,24,5.89A58.6,58.6,0,0,1,95,14.57a60.8,60.8,0,0,1,8.59,8.91,61.45,61.45,0,0,1,11,22A55.86,55.86,0,0,1,115.65,70c-1.53,8.07-5.06,15.94-10.89,21.85a32.41,32.41,0,0,1-22.14,9.65,25.92,25.92,0,0,1-12-2.54,21.31,21.31,0,0,1-5.06-3.51,22.67,22.67,0,0,1-3.93-4.7A24.12,24.12,0,0,1,57.9,79.21a19.07,19.07,0,0,1,3-11.6A18.87,18.87,0,0,0,58.2,79.19a23.8,23.8,0,0,0,4,11.2,22.75,22.75,0,0,0,3.91,4.5A20.66,20.66,0,0,0,71,98.18a25,25,0,0,0,11.58,2.24,31.22,31.22,0,0,0,21.09-9.64c5.47-5.76,8.73-13.36,10-21.15a52.34,52.34,0,0,0,.64-11.86,56.11,56.11,0,0,0-2-11.71A55.48,55.48,0,0,0,108.07,35a56.22,56.22,0,0,0-6.44-10,57.53,57.53,0,0,0-8.31-8.42,55.78,55.78,0,0,0-9.92-6.4A53.16,53.16,0,0,0,60.6,4.9,54,54,0,0,0,37.72,9.65a52.15,52.15,0,0,0-10,6.09,50.46,50.46,0,0,0-4.35,3.92c-.67.71-1.4,1.37-2,2.12L19.5,24a25.3,25.3,0,0,0-1.74,2.37c-.54.81-1.14,1.59-1.64,2.43A57.52,57.52,0,0,0,13.3,34,63.25,63.25,0,0,0,9.17,45l-.68,2.88-.33,1.44-.24,1.46-.48,2.92-.29,2.94c-.25,2-.21,3.93-.3,5.9,0,1,.05,2,.06,3s0,2,.16,3a73.4,73.4,0,0,0,5.67,22.89A92.2,92.2,0,0,0,18,102a107.39,107.39,0,0,0,6.6,9.92,126,126,0,0,0,16.08,17.63,178.78,178.78,0,0,0,18.83,14.86c6.58,4.66,13.32,9.21,19.72,14.34s12.44,10.88,17.21,17.75a68.15,68.15,0,0,1,10.29,22.57,72,72,0,0,1,2,24.68c-.11,2.07-.49,4.11-.8,6.17-.13,1-.41,2-.63,3s-.45,2-.71,3a67.37,67.37,0,0,1-4.4,11.65c-1.73,3.81-4,7.19-5.69,10.7S93.67,265.5,94.33,269a11.69,11.69,0,0,0,2,4.85,7,7,0,0,0,3.88,2.82,6.69,6.69,0,0,0,4.72-.55,10.59,10.59,0,0,0,3.92-3.35,14.34,14.34,0,0,0,2.14-4.95,28.57,28.57,0,0,0,.68-5.69,89.09,89.09,0,0,0-.56-11.87,90.16,90.16,0,0,0-17.47-43.87A59.42,59.42,0,0,0,76,190.62a42.27,42.27,0,0,0-22.66-5.69A32.38,32.38,0,0,0,32.11,194a27.19,27.19,0,0,0-6.44,9.8,23.54,23.54,0,0,0-1.36,5.74,24,24,0,0,0,0,5.93,24.29,24.29,0,0,0,4.11,11,21.94,21.94,0,0,0,4.07,4.32,19.71,19.71,0,0,0,5.18,2.91A20.66,20.66,0,0,0,43.52,235a23.12,23.12,0,0,0,3,.07,25.22,25.22,0,0,0,3-.39A18.47,18.47,0,0,0,59.89,229Z"/></g></svg>