<svg xmlns="http://www.w3.org/2000/svg" viewBox="0 0 720 100"><title>Wedding Assets</title><g id="Layer_3" data-name="Layer 3"><path d="M502.12,56.29C501,54.14,500,52.11,499,50.11s-2-3.94-3.07-5.84c-.5-1-1.09-1.88-1.61-2.85s-1.11-1.89-1.74-2.8c-1.13-1.92-2.47-3.7-3.71-5.83A17.43,17.43,0,0,1,495,36.6a23.88,23.88,0,0,1,2.45,2.68,27.41,27.41,0,0,1,2,3A24.22,24.22,0,0,1,502,49.09,17.63,17.63,0,0,1,502.12,56.29Z"/><path d="M464.24,59.76a10.28,10.28,0,0,0,13.5-.79,13.22,13.22,0,0,0,1.45-1.81,13.47,13.47,0,0,0,1.08-2.06,17.09,17.09,0,0,0,1-9.29A20.72,20.72,0,0,0,480,41.19a22.62,22.62,0,0,0-2.22-4.32,31.61,31.61,0,0,0-6.58-7.34,40.73,40.73,0,0,0-4.08-2.91,47.12,47.12,0,0,0-4.5-2.4c-6.23-2.92-13.17-4.54-20.22-6.11A55.23,55.23,0,0,1,464,20.57a36.83,36.83,0,0,1,10,5.22,32.11,32.11,0,0,1,7.87,8.39,25.7,25.7,0,0,1,4,11,19.75,19.75,0,0,1-2.13,11.65,14.48,14.48,0,0,1-3.92,4.61,12.36,12.36,0,0,1-5.55,2.33,11.93,11.93,0,0,1-5.76-.58A8.46,8.46,0,0,1,464.24,59.76Z"/><path d="M428.31,51.7A10.67,10.67,0,0,0,435,44.91a12.14,12.14,0,0,0,.73-4.63c0-.39-.09-.77-.11-1.15s-.14-.74-.22-1.11a12.79,12.79,0,0,0-.79-2.17A15.91,15.91,0,0,0,432.07,32a18.52,18.52,0,0,0-3.6-3,23.32,23.32,0,0,0-8.86-3.31,49.67,49.67,0,0,0-9.88-.59c-3.37.05-6.78.35-10.17.63-6.8.63-13.56,1.68-20.4,2.93a86.55,86.55,0,0,1,20-6c1.72-.32,3.45-.59,5.19-.79s3.47-.4,5.24-.52a44.73,44.73,0,0,1,10.75.43,29.71,29.71,0,0,1,5.33,1.47,22.71,22.71,0,0,1,4.95,2.66,18.69,18.69,0,0,1,6.94,8.78,15.48,15.48,0,0,1,.73,2.77c.07.47.11,1,.15,1.44a13.78,13.78,0,0,1,0,1.44,14.13,14.13,0,0,1-1.56,5.38,12,12,0,0,1-3.56,4.16A9.27,9.27,0,0,1,428.31,51.7Z"/><path d="M360.45,96.21a22.65,22.65,0,0,1-1.56-5.67,37.1,37.1,0,0,1,0-11.33,23.11,23.11,0,0,1,1.57-5.67A22.26,22.26,0,0,1,362,79.21a36.09,36.09,0,0,1,.43,5.67,37.29,37.29,0,0,1-.43,5.66A23.11,23.11,0,0,1,360.45,96.21Z"/><path d="M360.45,32.79a32.91,32.91,0,0,1-1.77-7.25,54.43,54.43,0,0,1,0-14.5,32.66,32.66,0,0,1,1.78-7.25A32.11,32.11,0,0,1,362.23,11a52,52,0,0,1,.48,7.25,53.4,53.4,0,0,1-.48,7.25A32.39,32.39,0,0,1,360.45,32.79Z"/><path d="M360.45,32.79a22,22,0,0,1,2.76-4.93,35.21,35.21,0,0,1,3.55-4.14,33.54,33.54,0,0,1,4.14-3.55,21.59,21.59,0,0,1,4.93-2.76,21.85,21.85,0,0,1-2.75,4.94,35.21,35.21,0,0,1-3.55,4.14A35.23,35.23,0,0,1,365.38,30,21.59,21.59,0,0,1,360.45,32.79Z"/><path d="M360.45,32.79a32.91,32.91,0,0,1-1.77-7.25,54.43,54.43,0,0,1,0-14.5,32.66,32.66,0,0,1,1.78-7.25A32.11,32.11,0,0,1,362.23,11a52,52,0,0,1,.48,7.25,53.4,53.4,0,0,1-.48,7.25A32.39,32.39,0,0,1,360.45,32.79Z"/><path d="M360.45,32.79A22,22,0,0,1,355.52,30a35.13,35.13,0,0,1-4.14-3.54,34.29,34.29,0,0,1-3.55-4.14,21.87,21.87,0,0,1-2.76-4.94A21.87,21.87,0,0,1,350,20.17a34.29,34.29,0,0,1,4.14,3.55,35.13,35.13,0,0,1,3.54,4.14A22,22,0,0,1,360.45,32.79Z"/><path d="M370.81,78a16.49,16.49,0,0,1-5.33-8.36,26.72,26.72,0,0,1-.8-10.11,33.31,33.31,0,0,1,8-18.63,23.83,23.83,0,0,1,8.47-6.17,19.76,19.76,0,0,1,10.42-1.34A25,25,0,0,1,401.06,37l2.08,1.41c.64.53,1.29,1,1.92,1.58a40.83,40.83,0,0,1,3.5,3.46l-2.07-1.3-1-.66c-.34-.22-.71-.4-1.06-.59-.71-.38-1.4-.79-2.09-1.18l-2.18-1a26.16,26.16,0,0,0-8.91-2.24,17.77,17.77,0,0,0-8.59,1.7,22.12,22.12,0,0,0-7,5.37A34.93,34.93,0,0,0,367.76,60a28.57,28.57,0,0,0-.36,9.27A18.49,18.49,0,0,0,370.81,78Z"/><path d="M217.88,56.29a17.63,17.63,0,0,1,.16-7.2,24.22,24.22,0,0,1,2.53-6.76,27.41,27.41,0,0,1,2-3A23.88,23.88,0,0,1,225,36.6a17.43,17.43,0,0,1,6.13-3.81c-1.24,2.13-2.58,3.91-3.71,5.83-.63.91-1.14,1.89-1.74,2.8s-1.11,1.87-1.61,2.85C223,46.17,222,48.11,221,50.11S219,54.14,217.88,56.29Z"/><path d="M255.76,59.76a8.46,8.46,0,0,1-4.32,3.43,11.93,11.93,0,0,1-5.76.58,12.36,12.36,0,0,1-5.55-2.33,14.48,14.48,0,0,1-3.92-4.61,19.75,19.75,0,0,1-2.13-11.65,25.7,25.7,0,0,1,4-11,32.11,32.11,0,0,1,7.87-8.39,36.83,36.83,0,0,1,10-5.22,55.23,55.23,0,0,1,21.68-2.46c-7,1.57-14,3.19-20.22,6.11a47.12,47.12,0,0,0-4.5,2.4,40.73,40.73,0,0,0-4.08,2.91,31.61,31.61,0,0,0-6.58,7.34,22.62,22.62,0,0,0-2.22,4.32,20.72,20.72,0,0,0-1.28,4.62,17.09,17.09,0,0,0,1,9.29,13.47,13.47,0,0,0,1.08,2.06A13.22,13.22,0,0,0,242.26,59a10.28,10.28,0,0,0,13.5.79Z"/><path d="M291.69,51.7a9.27,9.27,0,0,1-4.95-1.83,12,12,0,0,1-3.56-4.16,14.13,14.13,0,0,1-1.56-5.38,13.78,13.78,0,0,1,0-1.44c0-.48.08-1,.15-1.44a15.48,15.48,0,0,1,.73-2.77,18.69,18.69,0,0,1,6.94-8.78,22.71,22.71,0,0,1,4.95-2.66,29.71,29.71,0,0,1,5.33-1.47,44.73,44.73,0,0,1,10.75-.43c1.77.12,3.5.31,5.24.52s3.47.47,5.19.79a86.55,86.55,0,0,1,20,6c-6.84-1.25-13.6-2.3-20.4-2.93-3.39-.28-6.8-.58-10.17-.63a49.67,49.67,0,0,0-9.88.59A23.32,23.32,0,0,0,291.53,29a18.52,18.52,0,0,0-3.6,3,15.91,15.91,0,0,0-2.58,3.83,12.79,12.79,0,0,0-.79,2.17c-.08.37-.15.74-.22,1.11s-.11.76-.11,1.15a12.14,12.14,0,0,0,.73,4.63A10.67,10.67,0,0,0,291.69,51.7Z"/><path d="M349.19,78a18.49,18.49,0,0,0,3.41-8.77,28.57,28.57,0,0,0-.36-9.27,34.93,34.93,0,0,0-7.86-16.39,22.12,22.12,0,0,0-7-5.37,17.77,17.77,0,0,0-8.59-1.7,26.16,26.16,0,0,0-8.91,2.24l-2.18,1c-.69.39-1.38.8-2.09,1.18-.35.19-.72.37-1.06.59l-1,.66-2.07,1.3a40.83,40.83,0,0,1,3.5-3.46c.63-.54,1.28-1.05,1.92-1.58L318.94,37a25,25,0,0,1,9.53-3.61,19.76,19.76,0,0,1,10.42,1.34,23.83,23.83,0,0,1,8.47,6.17,33.31,33.31,0,0,1,8,18.63,26.72,26.72,0,0,1-.8,10.11A16.49,16.49,0,0,1,349.19,78Z"/><path d="M553,27.8a7,7,0,0,1,5.73,3.26,8.58,8.58,0,0,1,1.31,6.76A10.14,10.14,0,0,1,556,43.55a13.15,13.15,0,0,1-6.7,2.39,14.37,14.37,0,0,1-7-1.4,18.22,18.22,0,0,1-5.73-4.31,18.74,18.74,0,0,1-3.65-6.2,18.41,18.41,0,0,1-1-7.2,23.7,23.7,0,0,1,5.25-13.22,29,29,0,0,1,11.33-8.53A41.7,41.7,0,0,1,562.13,2,60,60,0,0,1,576,2.71a62.3,62.3,0,0,1,25.34,10.68c7.49,5.33,14,11.66,20.53,17.67s13.44,11.69,21.44,15.39a42.92,42.92,0,0,0,12.61,3.77,32.62,32.62,0,0,0,13.21-.85,31.31,31.31,0,0,1-13.32,2,43.16,43.16,0,0,1-13.27-3.06,64.58,64.58,0,0,1-12-6.53,127.92,127.92,0,0,1-10.72-8.33c-6.89-5.8-13.35-12-20.62-16.89a63.45,63.45,0,0,0-11.41-6.27A57.49,57.49,0,0,0,575.3,6.65c-8.5-1.48-17.51-1.3-25.37,1.91a25.41,25.41,0,0,0-10.08,7.25A21.17,21.17,0,0,0,535,27.05a15.48,15.48,0,0,0,.63,6.06,17.09,17.09,0,0,0,2.91,5.43A13.93,13.93,0,0,0,549.22,44a11.5,11.5,0,0,0,5.92-1.72A9,9,0,0,0,559,37.52a7.74,7.74,0,0,0-.76-6.14A6.67,6.67,0,0,0,553,27.8Z"/><path d="M697.37,26.94a7,7,0,0,1-5.72-3.26,8.55,8.55,0,0,1-1.32-6.76,10.14,10.14,0,0,1,4.08-5.73,13.15,13.15,0,0,1,6.71-2.39,14.36,14.36,0,0,1,7,1.4,18.07,18.07,0,0,1,5.73,4.31,18.54,18.54,0,0,1,4.66,13.4,23.77,23.77,0,0,1-5.25,13.22A29.1,29.1,0,0,1,702,49.66a41.7,41.7,0,0,1-13.67,3.13A60,60,0,0,1,674.43,52a62.18,62.18,0,0,1-25.34-10.69c-7.48-5.32-14-11.65-20.52-17.66S615.12,12,607.12,8.28a42.9,42.9,0,0,0-12.61-3.76,32.44,32.44,0,0,0-13.21.85,31.16,31.16,0,0,1,13.32-1.95A42.93,42.93,0,0,1,607.9,6.48a64.24,64.24,0,0,1,12,6.53,130.1,130.1,0,0,1,10.73,8.32c6.88,5.81,13.34,12,20.62,16.9a62.37,62.37,0,0,0,11.4,6.26,57,57,0,0,0,12.46,3.6c8.5,1.48,17.52,1.3,25.37-1.91a25.52,25.52,0,0,0,10.09-7.25,21.24,21.24,0,0,0,4.87-11.25,15.44,15.44,0,0,0-.64-6.05,16.6,16.6,0,0,0-2.91-5.43,13.93,13.93,0,0,0-10.7-5.45,11.41,11.41,0,0,0-5.92,1.72,9,9,0,0,0-3.88,4.75,7.78,7.78,0,0,0,.76,6.14A6.67,6.67,0,0,0,697.37,26.94Z"/><path d="M22.63,26.94a6.67,6.67,0,0,0,5.22-3.58,7.78,7.78,0,0,0,.76-6.14,9,9,0,0,0-3.88-4.75,11.41,11.41,0,0,0-5.92-1.72A13.93,13.93,0,0,0,8.11,16.2,16.6,16.6,0,0,0,5.2,21.63a15.44,15.44,0,0,0-.64,6.05A21.24,21.24,0,0,0,9.43,38.93a25.52,25.52,0,0,0,10.09,7.25c7.85,3.21,16.87,3.39,25.37,1.91a57,57,0,0,0,12.46-3.6,62.37,62.37,0,0,0,11.4-6.26c7.28-4.9,13.74-11.09,20.62-16.9A130.1,130.1,0,0,1,100.1,13a64.24,64.24,0,0,1,12-6.53,42.93,42.93,0,0,1,13.28-3.06,31.16,31.16,0,0,1,13.32,2,32.44,32.44,0,0,0-13.21-.85,42.9,42.9,0,0,0-12.61,3.76c-8,3.71-14.86,9.44-21.45,15.4S78.39,36,70.91,41.34A62.18,62.18,0,0,1,45.57,52a60,60,0,0,1-13.85.76,41.7,41.7,0,0,1-13.67-3.13A29.1,29.1,0,0,1,6.71,41.13,23.77,23.77,0,0,1,1.46,27.91a18.54,18.54,0,0,1,4.66-13.4,18.07,18.07,0,0,1,5.73-4.31,14.36,14.36,0,0,1,7-1.4,13.15,13.15,0,0,1,6.71,2.39,10.14,10.14,0,0,1,4.08,5.73,8.55,8.55,0,0,1-1.32,6.76A7,7,0,0,1,22.63,26.94Z"/><path d="M167,27.8a6.67,6.67,0,0,0-5.22,3.58,7.74,7.74,0,0,0-.76,6.14,9,9,0,0,0,3.88,4.75A11.5,11.5,0,0,0,170.78,44a13.93,13.93,0,0,0,10.7-5.45,17.09,17.09,0,0,0,2.91-5.43,15.48,15.48,0,0,0,.63-6.06,21.17,21.17,0,0,0-4.87-11.24,25.41,25.41,0,0,0-10.08-7.25c-7.86-3.21-16.87-3.39-25.37-1.91a57.49,57.49,0,0,0-12.46,3.59,63.45,63.45,0,0,0-11.41,6.27c-7.27,4.9-13.73,11.09-20.62,16.89a127.92,127.92,0,0,1-10.72,8.33,64.58,64.58,0,0,1-12,6.53,43.16,43.16,0,0,1-13.27,3.06,31.31,31.31,0,0,1-13.32-2,32.62,32.62,0,0,0,13.21.85,42.92,42.92,0,0,0,12.61-3.77c8-3.7,14.86-9.43,21.44-15.39s13-12.34,20.53-17.67A62.3,62.3,0,0,1,144,2.71,60,60,0,0,1,157.87,2a41.7,41.7,0,0,1,13.67,3.13,29,29,0,0,1,11.33,8.53,23.7,23.7,0,0,1,5.25,13.22,18.41,18.41,0,0,1-1,7.2,18.74,18.74,0,0,1-3.65,6.2,18.22,18.22,0,0,1-5.73,4.31,14.37,14.37,0,0,1-7,1.4,13.15,13.15,0,0,1-6.7-2.39,10.14,10.14,0,0,1-4.08-5.73,8.58,8.58,0,0,1,1.31-6.76A7,7,0,0,1,167,27.8Z"/></g></svg>