<svg xmlns="http://www.w3.org/2000/svg" viewBox="0 0 720 100"><title>Wedding Assets</title><g id="Layer_3" data-name="Layer 3"><path d="M217.88,43.71C219,45.86,220,47.89,221,49.89s2,3.94,3.07,5.84c.5,1,1.09,1.88,1.61,2.85s1.11,1.89,1.74,2.8c1.13,1.92,2.47,3.7,3.71,5.83A17.43,17.43,0,0,1,225,63.4a23.88,23.88,0,0,1-2.45-2.68,27.41,27.41,0,0,1-2-3A24.22,24.22,0,0,1,218,50.91,17.63,17.63,0,0,1,217.88,43.71Z"/><path d="M255.76,40.24a10.28,10.28,0,0,0-13.5.79,13.22,13.22,0,0,0-1.45,1.81,13.47,13.47,0,0,0-1.08,2.06,17.09,17.09,0,0,0-1,9.29,20.72,20.72,0,0,0,1.28,4.62,22.62,22.62,0,0,0,2.22,4.32,31.61,31.61,0,0,0,6.58,7.34,40.73,40.73,0,0,0,4.08,2.91,47.12,47.12,0,0,0,4.5,2.4c6.23,2.92,13.17,4.54,20.22,6.11A55.23,55.23,0,0,1,256,79.43a36.83,36.83,0,0,1-10-5.22,32.11,32.11,0,0,1-7.87-8.39,25.75,25.75,0,0,1-4-11,19.75,19.75,0,0,1,2.13-11.65,14.48,14.48,0,0,1,3.92-4.61,12.36,12.36,0,0,1,5.55-2.33,11.93,11.93,0,0,1,5.76.58A8.46,8.46,0,0,1,255.76,40.24Z"/><path d="M291.69,48.3A10.67,10.67,0,0,0,285,55.09a12.14,12.14,0,0,0-.73,4.63c0,.39.09.77.11,1.15s.14.74.22,1.11a12.79,12.79,0,0,0,.79,2.17A15.91,15.91,0,0,0,287.93,68a18.52,18.52,0,0,0,3.6,3,23.32,23.32,0,0,0,8.86,3.31,49.67,49.67,0,0,0,9.88.59c3.37,0,6.78-.35,10.17-.63,6.8-.63,13.56-1.68,20.4-2.93a86.55,86.55,0,0,1-20,6c-1.72.32-3.45.59-5.19.79s-3.47.39-5.24.52a44.73,44.73,0,0,1-10.75-.43,29.71,29.71,0,0,1-5.33-1.47,22.71,22.71,0,0,1-4.95-2.66,18.69,18.69,0,0,1-6.94-8.78,15.48,15.48,0,0,1-.73-2.77c-.07-.47-.11-1-.15-1.44a13.78,13.78,0,0,1,0-1.44,14.13,14.13,0,0,1,1.56-5.38,12,12,0,0,1,3.56-4.16A9.27,9.27,0,0,1,291.69,48.3Z"/><path d="M359.55,3.79a22.65,22.65,0,0,1,1.56,5.67,37.11,37.11,0,0,1,0,11.33,23.11,23.11,0,0,1-1.57,5.67A22.71,22.71,0,0,1,358,20.79a36,36,0,0,1-.42-5.66A37.33,37.33,0,0,1,358,9.46,23.11,23.11,0,0,1,359.55,3.79Z"/><path d="M359.55,67.21a33,33,0,0,1,1.77,7.25,54.43,54.43,0,0,1,0,14.5,32.52,32.52,0,0,1-1.78,7.25A32,32,0,0,1,357.77,89a51.93,51.93,0,0,1-.48-7.25,53.5,53.5,0,0,1,.48-7.25A32.52,32.52,0,0,1,359.55,67.21Z"/><path d="M359.55,67.21a22,22,0,0,1-2.76,4.93,35.21,35.21,0,0,1-3.55,4.14,33.54,33.54,0,0,1-4.14,3.55,21.59,21.59,0,0,1-4.93,2.76,21.85,21.85,0,0,1,2.75-4.94,35.06,35.06,0,0,1,7.7-7.68A21.59,21.59,0,0,1,359.55,67.21Z"/><path d="M359.55,67.21a33,33,0,0,1,1.77,7.25,54.43,54.43,0,0,1,0,14.5,32.52,32.52,0,0,1-1.78,7.25A32,32,0,0,1,357.77,89a51.93,51.93,0,0,1-.48-7.25,53.5,53.5,0,0,1,.48-7.25A32.52,32.52,0,0,1,359.55,67.21Z"/><path d="M359.55,67.21A22,22,0,0,1,364.48,70a35.13,35.13,0,0,1,4.14,3.54,34.29,34.29,0,0,1,3.55,4.14,21.87,21.87,0,0,1,2.76,4.94A21.87,21.87,0,0,1,370,79.83a34.29,34.29,0,0,1-4.14-3.55,35.13,35.13,0,0,1-3.54-4.14A22,22,0,0,1,359.55,67.21Z"/><path d="M349.19,22a16.49,16.49,0,0,1,5.33,8.36,26.72,26.72,0,0,1,.8,10.11,33.31,33.31,0,0,1-8,18.63,23.83,23.83,0,0,1-8.47,6.17,19.76,19.76,0,0,1-10.42,1.34A25,25,0,0,1,318.94,63l-2.08-1.41c-.64-.53-1.29-1-1.92-1.58a40.83,40.83,0,0,1-3.5-3.46l2.07,1.3,1,.66c.34.22.71.4,1.06.59.71.38,1.4.79,2.09,1.18l2.18,1a26.16,26.16,0,0,0,8.91,2.24,17.77,17.77,0,0,0,8.59-1.7,22.12,22.12,0,0,0,7-5.37A34.93,34.93,0,0,0,352.24,40a28.57,28.57,0,0,0,.36-9.27A18.49,18.49,0,0,0,349.19,22Z"/><path d="M502.12,43.71a17.63,17.63,0,0,1-.16,7.2,24.22,24.22,0,0,1-2.53,6.76,27.41,27.41,0,0,1-2,3A23.88,23.88,0,0,1,495,63.4a17.43,17.43,0,0,1-6.13,3.81c1.24-2.13,2.58-3.91,3.71-5.83.63-.91,1.14-1.89,1.74-2.8s1.11-1.87,1.61-2.85c1.06-1.9,2.08-3.84,3.07-5.84S501,45.86,502.12,43.71Z"/><path d="M464.24,40.24a8.46,8.46,0,0,1,4.32-3.43,11.93,11.93,0,0,1,5.76-.58,12.36,12.36,0,0,1,5.55,2.33,14.48,14.48,0,0,1,3.92,4.61,19.75,19.75,0,0,1,2.13,11.65,25.75,25.75,0,0,1-4,11,32.11,32.11,0,0,1-7.87,8.39,36.83,36.83,0,0,1-10,5.22,55.23,55.23,0,0,1-21.68,2.46c7-1.57,14-3.19,20.22-6.11a47.12,47.12,0,0,0,4.5-2.4,40.73,40.73,0,0,0,4.08-2.91,31.61,31.61,0,0,0,6.58-7.34A22.62,22.62,0,0,0,480,58.81a20.72,20.72,0,0,0,1.28-4.62,17.09,17.09,0,0,0-1-9.29,13.47,13.47,0,0,0-1.08-2.06A13.22,13.22,0,0,0,477.74,41a10.28,10.28,0,0,0-13.5-.79Z"/><path d="M428.31,48.3a9.27,9.27,0,0,1,4.95,1.83,12,12,0,0,1,3.56,4.16,14.13,14.13,0,0,1,1.56,5.38,13.78,13.78,0,0,1,0,1.44c0,.48-.08,1-.15,1.44a15.48,15.48,0,0,1-.73,2.77,18.69,18.69,0,0,1-6.94,8.78,22.71,22.71,0,0,1-4.95,2.66,29.71,29.71,0,0,1-5.33,1.47,44.73,44.73,0,0,1-10.75.43c-1.77-.13-3.5-.31-5.24-.52s-3.47-.47-5.19-.79a86.55,86.55,0,0,1-20-6c6.84,1.25,13.6,2.3,20.4,2.93,3.39.28,6.8.58,10.17.63a49.67,49.67,0,0,0,9.88-.59A23.32,23.32,0,0,0,428.47,71a18.52,18.52,0,0,0,3.6-3,15.91,15.91,0,0,0,2.58-3.83,12.79,12.79,0,0,0,.79-2.17c.08-.37.15-.74.22-1.11s.11-.76.11-1.15a12.14,12.14,0,0,0-.73-4.63A10.67,10.67,0,0,0,428.31,48.3Z"/><path d="M370.81,22a18.49,18.49,0,0,0-3.41,8.77,28.57,28.57,0,0,0,.36,9.27,34.93,34.93,0,0,0,7.86,16.39,22.12,22.12,0,0,0,7,5.37,17.77,17.77,0,0,0,8.59,1.7,26.16,26.16,0,0,0,8.91-2.24l2.18-1c.69-.39,1.38-.8,2.09-1.18.35-.19.72-.37,1.06-.59l1-.66,2.07-1.3a40.83,40.83,0,0,1-3.5,3.46c-.63.54-1.28,1.05-1.92,1.58L401.06,63a25,25,0,0,1-9.53,3.61,19.76,19.76,0,0,1-10.42-1.34,23.83,23.83,0,0,1-8.47-6.17,33.31,33.31,0,0,1-8-18.63,26.72,26.72,0,0,1,.8-10.11A16.49,16.49,0,0,1,370.81,22Z"/><path d="M167,72.2a7,7,0,0,1-5.73-3.26,8.58,8.58,0,0,1-1.31-6.76A10.14,10.14,0,0,1,164,56.45a13.15,13.15,0,0,1,6.7-2.39,14.37,14.37,0,0,1,7,1.4,18.22,18.22,0,0,1,5.73,4.31,18.74,18.74,0,0,1,3.65,6.2,18.41,18.41,0,0,1,1,7.2,23.7,23.7,0,0,1-5.25,13.22,29,29,0,0,1-11.33,8.53,41.7,41.7,0,0,1-13.67,3.13A60,60,0,0,1,144,97.29a62.3,62.3,0,0,1-25.34-10.68c-7.49-5.33-14-11.66-20.53-17.67S84.71,57.25,76.71,53.54A43.2,43.2,0,0,0,64.1,49.78a32.62,32.62,0,0,0-13.21.85,31.31,31.31,0,0,1,13.32-2,43.16,43.16,0,0,1,13.27,3.06,64.58,64.58,0,0,1,12,6.53,127.92,127.92,0,0,1,10.72,8.33c6.89,5.8,13.35,12,20.62,16.89a63.45,63.45,0,0,0,11.41,6.27,57.49,57.49,0,0,0,12.46,3.59c8.5,1.48,17.51,1.3,25.37-1.91a25.41,25.41,0,0,0,10.08-7.25A21.17,21.17,0,0,0,185,72.94a15.45,15.45,0,0,0-.63-6,17.09,17.09,0,0,0-2.91-5.43A13.93,13.93,0,0,0,170.78,56a11.5,11.5,0,0,0-5.92,1.72A9,9,0,0,0,161,62.48a7.74,7.74,0,0,0,.76,6.14A6.67,6.67,0,0,0,167,72.2Z"/><path d="M22.63,73.06a7,7,0,0,1,5.72,3.26,8.55,8.55,0,0,1,1.32,6.76,10.14,10.14,0,0,1-4.08,5.73,13.15,13.15,0,0,1-6.71,2.39,14.36,14.36,0,0,1-7-1.4,18.07,18.07,0,0,1-5.73-4.31,18.54,18.54,0,0,1-4.66-13.4A23.77,23.77,0,0,1,6.71,58.87a29.1,29.1,0,0,1,11.34-8.53,41.7,41.7,0,0,1,13.67-3.13A60,60,0,0,1,45.57,48,62.18,62.18,0,0,1,70.91,58.66c7.48,5.32,14,11.65,20.52,17.66S104.88,88,112.88,91.72a42.9,42.9,0,0,0,12.61,3.76,32.44,32.44,0,0,0,13.21-.85,31.16,31.16,0,0,1-13.32,2,42.93,42.93,0,0,1-13.28-3.06,64.24,64.24,0,0,1-12-6.53,130.1,130.1,0,0,1-10.73-8.32c-6.88-5.81-13.34-12-20.62-16.9a62.37,62.37,0,0,0-11.4-6.26,57,57,0,0,0-12.46-3.6c-8.5-1.48-17.52-1.3-25.37,1.91A25.52,25.52,0,0,0,9.43,61.07,21.24,21.24,0,0,0,4.56,72.32a15.44,15.44,0,0,0,.64,6.05A16.6,16.6,0,0,0,8.11,83.8a13.93,13.93,0,0,0,10.7,5.45,11.41,11.41,0,0,0,5.92-1.72,9,9,0,0,0,3.88-4.75,7.78,7.78,0,0,0-.76-6.14A6.67,6.67,0,0,0,22.63,73.06Z"/><path d="M697.37,73.06a6.67,6.67,0,0,0-5.22,3.58,7.78,7.78,0,0,0-.76,6.14,9,9,0,0,0,3.88,4.75,11.41,11.41,0,0,0,5.92,1.72,13.93,13.93,0,0,0,10.7-5.45,16.6,16.6,0,0,0,2.91-5.43,15.44,15.44,0,0,0,.64-6.05,21.24,21.24,0,0,0-4.87-11.25,25.52,25.52,0,0,0-10.09-7.25c-7.85-3.21-16.87-3.39-25.37-1.91a57,57,0,0,0-12.46,3.6,62.37,62.37,0,0,0-11.4,6.26c-7.28,4.9-13.74,11.09-20.62,16.9A130.1,130.1,0,0,1,619.9,87a64.24,64.24,0,0,1-12,6.53,42.93,42.93,0,0,1-13.28,3.06,31.16,31.16,0,0,1-13.32-2,32.44,32.44,0,0,0,13.21.85,42.9,42.9,0,0,0,12.61-3.76c8-3.71,14.86-9.44,21.45-15.4s13-12.34,20.52-17.66A62.18,62.18,0,0,1,674.43,48a60,60,0,0,1,13.85-.76A41.7,41.7,0,0,1,702,50.34a29.1,29.1,0,0,1,11.34,8.53,23.77,23.77,0,0,1,5.25,13.22,18.54,18.54,0,0,1-4.66,13.4,18.07,18.07,0,0,1-5.73,4.31,14.36,14.36,0,0,1-7,1.4,13.15,13.15,0,0,1-6.71-2.39,10.14,10.14,0,0,1-4.08-5.73,8.55,8.55,0,0,1,1.32-6.76A7,7,0,0,1,697.37,73.06Z"/><path d="M553,72.2a6.67,6.67,0,0,0,5.22-3.58,7.74,7.74,0,0,0,.76-6.14,9,9,0,0,0-3.88-4.75A11.5,11.5,0,0,0,549.22,56a13.93,13.93,0,0,0-10.7,5.45,17.09,17.09,0,0,0-2.91,5.43,15.45,15.45,0,0,0-.63,6,21.17,21.17,0,0,0,4.87,11.25,25.41,25.41,0,0,0,10.08,7.25c7.86,3.21,16.87,3.39,25.37,1.91a57.49,57.49,0,0,0,12.46-3.59,63.45,63.45,0,0,0,11.41-6.27c7.27-4.9,13.73-11.09,20.62-16.89a127.92,127.92,0,0,1,10.72-8.33,64.58,64.58,0,0,1,12-6.53,43.16,43.16,0,0,1,13.27-3.06,31.31,31.31,0,0,1,13.32,2,32.62,32.62,0,0,0-13.21-.85,43.2,43.2,0,0,0-12.61,3.76c-8,3.71-14.86,9.44-21.44,15.4s-13,12.34-20.53,17.67A62.3,62.3,0,0,1,576,97.29a60,60,0,0,1-13.85.76,41.7,41.7,0,0,1-13.67-3.13,29,29,0,0,1-11.33-8.53,23.7,23.7,0,0,1-5.25-13.22,18.41,18.41,0,0,1,1-7.2,18.74,18.74,0,0,1,3.65-6.2,18.22,18.22,0,0,1,5.73-4.31,14.37,14.37,0,0,1,7-1.4,13.15,13.15,0,0,1,6.7,2.39,10.14,10.14,0,0,1,4.08,5.73,8.58,8.58,0,0,1-1.31,6.76A7,7,0,0,1,553,72.2Z"/></g></svg>